# xmcd CD database file
#
# Track frame offsets:
#	150
#	18775
#	35517
#	49327
#	64388
#	77087
#	93613
#	108348
#	127227
#	143780
#	160557
#	175298
#	190914
#	212818
#	227794
#	242437
#	256264
#	270741
#	285323
#	297097
#
# Disc length: 4143 seconds
#
# Revision: 0
# Processed by: cddbd v1.5.1PL0 Copyright (c) Steve Scherf et al.
# Submitted via: CDex 1.50
#
DISCID=20102d14
DTITLE=Various Artist - NFS - Vol 100
DYEAR=2005
DGENRE=Country
TTITLE0=Brian Letton - Two Chords
TTITLE1=Shaza Leigh - Old Calare
TTITLE2=James Blundell - 24 Hour Love Affair
TTITLE3=Ann Marita - Alive And Kickin'
TTITLE4=Billy Bridge - Little Bitty Kiss
TTITLE5=Carol Donovan - Be Still
TTITLE6=Tom Curtain - She Stays With Me
TTITLE7=Connie Kis Andersen - Gone Wishin'
TTITLE8=Sweeney Killeen - Running
TTITLE9=Mike Rayson - Circle Spin Around
TTITLE10=Busty Brasierri - The Wife's Reply
TTITLE11=Steve Gibson - One More Goodbye
TTITLE12=Jetty Road - Be With You
TTITLE13=Paul Costa - It's Good To Be Me
TTITLE14=Donna Boyd - Cry, Cry, Darlin'
TTITLE15=The Flood - Hello Blue Sky
TTITLE16=Karen Lynne - Second Wind
TTITLE17=Dale Duncan - Do You Wanna Be
TTITLE18=The Peasall Sisters - Home To You
TTITLE19=Kylie Hogan - Carmelita
EXTD=YEAR: 2005
EXTT0=
EXTT1=
EXTT2=
EXTT3=
EXTT4=
EXTT5=
EXTT6=
EXTT7=
EXTT8=
EXTT9=
EXTT10=
EXTT11=
EXTT12=
EXTT13=
EXTT14=
EXTT15=
EXTT16=
EXTT17=
EXTT18=
EXTT19=
PLAYORDER=
